<svg width="512" height="512" viewBox="0 0 512 512" fill="none" xmlns="http://www.w3.org/2000/svg">
<g clip-path="url(#clip0_583_3)">
<path d="M354.688 137.169C356.127 138.444 357.564 139.722 359 141C360.289 142.065 361.581 143.128 362.875 144.187C366.654 147.459 369.827 151.147 373 155C374.255 156.498 374.255 156.498 375.535 158.027C402.203 190.46 413.51 231.565 409.707 273.208C407.303 293.808 400.964 312.87 391 331C390.447 332.043 389.894 333.086 389.324 334.16C380.007 351.038 366.333 366.413 351 378C350.221 378.599 350.221 378.599 349.427 379.21C330.015 394.069 307.974 403.416 284 408C282.851 408.226 281.703 408.451 280.52 408.684C240.56 415.231 198.469 405.124 165.637 381.629C153.703 372.828 142.93 362.863 134 351C133.602 350.482 133.204 349.965 132.794 349.432C117.889 329.96 108.724 307.998 104 284C103.774 282.948 103.549 281.896 103.316 280.812C97.1375 246.722 104.452 211.05 121 181C121.565 179.945 122.129 178.891 122.711 177.805C132.14 160.849 145.522 145.65 161 134C161.518 133.602 162.035 133.204 162.568 132.794C182.035 117.892 204.003 108.713 228 104C229.063 103.774 230.127 103.549 231.223 103.316C274.025 95.6257 321.971 108.609 354.688 137.169ZM248 120C248 142.44 248 164.88 248 188C253.28 188 258.56 188 264 188C264 165.56 264 143.12 264 120C258.72 120 253.44 120 248 120ZM190 137C188.521 137.802 188.521 137.802 187.012 138.621C184.996 139.728 182.991 140.849 181 142C182.528 145.61 184.672 147.919 187.434 150.677C188.351 151.597 189.269 152.518 190.214 153.467C191.217 154.462 192.22 155.458 193.223 156.453C194.249 157.478 195.275 158.504 196.301 159.53C198.447 161.675 200.597 163.816 202.749 165.955C205.514 168.703 208.272 171.457 211.028 174.214C213.145 176.33 215.263 178.443 217.383 180.555C218.401 181.571 219.419 182.587 220.436 183.603C221.854 185.018 223.274 186.43 224.696 187.841C225.504 188.646 226.313 189.451 227.147 190.281C228.701 192.113 228.701 192.113 230 192C230 169.23 230 146.46 230 123C216.113 123 201.918 130.441 190 137ZM282 123C282 145.77 282 168.54 282 192C286.055 188.524 289.897 185.228 293.65 181.495C294.49 180.661 295.331 179.827 296.197 178.968C297.079 178.086 297.962 177.205 298.871 176.297C299.793 175.378 300.716 174.459 301.666 173.512C303.603 171.581 305.538 169.647 307.472 167.713C309.955 165.231 312.444 162.755 314.934 160.282C317.314 157.916 319.686 155.544 322.059 153.172C322.955 152.282 323.852 151.393 324.776 150.476C325.594 149.655 326.413 148.833 327.256 147.987C327.981 147.264 328.706 146.54 329.453 145.795C331.218 144.142 331.218 144.142 331 142C307.931 128.269 307.931 128.269 282 123ZM162.617 157.187C161.26 158.58 161.26 158.58 159.875 160C158.965 160.928 158.055 161.856 157.117 162.812C156.418 163.534 155.72 164.256 155 165C156.507 168.532 158.554 170.796 161.266 173.493C162.587 174.814 162.587 174.814 163.935 176.162C164.897 177.113 165.858 178.064 166.82 179.016C167.804 179.996 168.788 180.977 169.771 181.958C172.354 184.533 174.944 187.103 177.534 189.671C180.179 192.295 182.818 194.925 185.457 197.555C190.632 202.709 195.814 207.856 201 213C204.277 211.908 204.916 211.173 207 208.562C208.964 206.112 210.321 204.786 213 203C211.495 199.481 209.459 197.205 206.766 194.507C205.891 193.626 205.017 192.746 204.116 191.838C203.161 190.887 202.206 189.935 201.25 188.984C200.271 188.004 199.292 187.023 198.313 186.042C196.266 183.991 194.214 181.944 192.16 179.899C189.524 177.274 186.896 174.64 184.271 172.003C182.254 169.979 180.232 167.959 178.208 165.94C177.237 164.97 176.267 163.999 175.299 163.026C173.949 161.671 172.592 160.323 171.234 158.976C170.463 158.206 169.692 157.436 168.897 156.643C165.967 154.105 165.467 154.571 162.617 157.187ZM343.013 156.746C342.2 157.563 341.388 158.381 340.55 159.223C339.629 160.144 338.709 161.065 337.76 162.013C336.754 163.03 335.748 164.046 334.742 165.062C333.714 166.094 332.686 167.126 331.657 168.156C328.946 170.874 326.242 173.599 323.539 176.324C320.781 179.102 318.017 181.875 315.254 184.648C309.83 190.093 304.413 195.545 299 201C300.092 204.277 300.827 204.916 303.437 207C305.888 208.964 307.214 210.321 309 213C312.532 211.493 314.796 209.446 317.493 206.734C318.374 205.853 319.254 204.972 320.162 204.065C321.113 203.103 322.064 202.141 323.016 201.18C323.996 200.196 324.977 199.212 325.958 198.229C328.534 195.646 331.103 193.056 333.671 190.466C336.295 187.821 338.925 185.182 341.555 182.543C346.709 177.367 351.856 172.186 357 167C355.411 163.641 353.649 161.379 351 158.75C350.299 158.044 349.597 157.337 348.875 156.609C346.23 154.339 345.626 154.45 343.013 156.746ZM142 181C128.269 204.069 128.269 204.069 123 230C145.77 230 168.54 230 192 230C188.524 225.945 185.228 222.103 181.495 218.35C180.661 217.509 179.827 216.669 178.968 215.803C178.086 214.921 177.205 214.038 176.297 213.129C175.378 212.207 174.459 211.284 173.512 210.334C171.581 208.397 169.647 206.461 167.713 204.528C165.231 202.045 162.755 199.556 160.282 197.066C157.916 194.686 155.544 192.314 153.172 189.941C152.282 189.045 151.393 188.148 150.476 187.224C149.655 186.406 148.834 185.587 147.987 184.744C147.264 184.019 146.54 183.294 145.795 182.547C144.142 180.782 144.142 180.782 142 181ZM365.937 182.815C365.089 183.665 364.241 184.515 363.367 185.39C362.898 185.857 362.43 186.323 361.947 186.804C360.395 188.353 358.85 189.909 357.305 191.465C356.232 192.539 355.158 193.613 354.085 194.686C351.834 196.939 349.586 199.194 347.341 201.453C344.457 204.355 341.565 207.25 338.672 210.143C336.455 212.36 334.24 214.58 332.027 216.8C330.961 217.869 329.895 218.937 328.828 220.005C327.341 221.494 325.857 222.987 324.374 224.48C323.528 225.331 322.681 226.181 321.809 227.057C319.886 228.68 319.886 228.68 320 230C342.77 230 365.54 230 389 230C388.235 223.882 387.359 219.175 385.437 213.5C385.178 212.727 384.918 211.954 384.651 211.157C380.945 200.519 375.62 190.729 370 181C367.792 180.78 367.792 180.78 365.937 182.815ZM215.687 224.75C207.555 235.461 203.664 248.939 205.277 262.297C207.786 277.302 215.224 289.08 227.297 298.246C238.517 305.526 251.594 308.512 264.75 306.312C279.771 302.972 291.6 294.947 300 282C306.718 269.077 308.883 256.068 305 242C300.527 228.308 291.97 217.183 279.047 210.465C255.933 200.301 232.35 205.347 215.687 224.75ZM120 248C120 253.28 120 258.56 120 264C142.44 264 164.88 264 188 264C188 258.72 188 253.44 188 248C165.56 248 143.12 248 120 248ZM324 248C324 253.28 324 258.56 324 264C346.44 264 368.88 264 392 264C392 258.72 392 253.44 392 248C369.56 248 347.12 248 324 248ZM123 282C123.765 288.118 124.641 292.825 126.562 298.5C126.822 299.273 127.082 300.046 127.349 300.843C131.055 311.481 136.38 321.271 142 331C145.61 329.472 147.919 327.328 150.677 324.566C151.597 323.649 152.518 322.731 153.467 321.786C154.462 320.783 155.458 319.78 156.453 318.777C157.478 317.751 158.504 316.725 159.53 315.699C161.675 313.553 163.816 311.403 165.955 309.251C168.703 306.486 171.457 303.727 174.214 300.971C176.33 298.855 178.443 296.737 180.555 294.617C181.571 293.599 182.587 292.581 183.603 291.564C185.018 290.146 186.43 288.725 187.841 287.304C188.646 286.495 189.451 285.687 190.281 284.853C192.113 283.299 192.113 283.299 192 282C169.23 282 146.46 282 123 282ZM320 282C323.476 286.055 326.772 289.897 330.505 293.65C331.339 294.49 332.173 295.331 333.032 296.197C333.913 297.079 334.795 297.962 335.703 298.871C336.622 299.793 337.541 300.716 338.488 301.666C340.419 303.603 342.353 305.538 344.287 307.472C346.769 309.955 349.245 312.444 351.718 314.934C354.084 317.313 356.456 319.686 358.828 322.059C359.718 322.955 360.607 323.852 361.524 324.776C362.345 325.594 363.166 326.412 364.013 327.256C364.736 327.981 365.46 328.706 366.205 329.453C367.857 331.218 367.857 331.218 370 331C383.731 307.931 383.731 307.931 389 282C366.23 282 343.46 282 320 282ZM199.013 300.746C198.2 301.563 197.388 302.381 196.55 303.223C195.629 304.144 194.709 305.065 193.76 306.013C192.754 307.03 191.748 308.046 190.742 309.062C189.714 310.094 188.686 311.126 187.657 312.156C184.946 314.874 182.242 317.599 179.539 320.324C176.781 323.102 174.017 325.875 171.254 328.648C165.83 334.093 160.413 339.545 155 345C156.605 348.411 158.405 350.618 161.125 353.25C162.212 354.31 162.212 354.31 163.32 355.391C163.875 355.922 164.429 356.453 165 357C168.532 355.493 170.796 353.446 173.493 350.734C174.374 349.853 175.254 348.972 176.162 348.065C177.113 347.103 178.064 346.141 179.016 345.18C179.996 344.196 180.977 343.212 181.958 342.229C184.534 339.646 187.103 337.056 189.671 334.466C192.295 331.821 194.925 329.182 197.555 326.543C202.709 321.367 207.856 316.186 213 311C211.908 307.723 211.173 307.084 208.562 305C206.112 303.036 204.786 301.679 203 299C200.809 298.78 200.809 298.78 199.013 300.746ZM309 299C307.297 300.722 307.297 300.722 305.562 302.875C303.416 305.462 301.832 307.112 299 309C300.507 312.532 302.554 314.796 305.266 317.493C306.587 318.814 306.587 318.814 307.935 320.162C308.897 321.113 309.858 322.064 310.82 323.016C311.804 323.996 312.788 324.977 313.771 325.958C316.354 328.533 318.944 331.103 321.534 333.671C324.179 336.295 326.818 338.925 329.457 341.555C334.632 346.709 339.814 351.856 345 357C348.411 355.395 350.618 353.595 353.25 350.875C353.956 350.15 354.663 349.426 355.391 348.68C355.922 348.125 356.453 347.571 357 347C355.495 343.481 353.459 341.205 350.766 338.507C349.891 337.626 349.017 336.746 348.116 335.838C347.161 334.887 346.206 333.935 345.25 332.984C344.271 332.004 343.292 331.023 342.313 330.042C340.266 327.991 338.214 325.944 336.16 323.899C333.524 321.274 330.896 318.64 328.271 316.003C326.254 313.979 324.232 311.959 322.208 309.94C321.237 308.97 320.267 307.999 319.299 307.026C317.949 305.671 316.592 304.323 315.234 302.976C314.463 302.206 313.692 301.436 312.897 300.643C311.166 298.782 311.166 298.782 309 299ZM224.48 324.374C223.778 325.072 223.778 325.072 223.061 325.783C221.505 327.329 219.954 328.879 218.402 330.43C217.328 331.501 216.253 332.572 215.178 333.644C212.922 335.893 210.669 338.145 208.417 340.398C205.524 343.291 202.625 346.176 199.723 349.06C197.501 351.272 195.283 353.488 193.066 355.705C191.998 356.772 190.929 357.836 189.859 358.899C188.365 360.384 186.877 361.874 185.39 363.367C184.116 364.639 184.116 364.639 182.815 365.937C180.78 367.792 180.78 367.792 181 370C204.069 383.731 204.069 383.731 230 389C230 366.23 230 343.46 230 320C227.892 320 225.821 323.04 224.48 324.374ZM282 320C282 342.77 282 365.54 282 389C288.118 388.235 292.825 387.359 298.5 385.437C299.273 385.178 300.046 384.918 300.843 384.651C311.481 380.945 321.271 375.62 331 370C329.472 366.39 327.328 364.081 324.566 361.323C323.649 360.403 322.731 359.482 321.786 358.533C320.783 357.538 319.78 356.542 318.777 355.547C317.751 354.522 316.725 353.496 315.699 352.47C313.553 350.325 311.403 348.184 309.251 346.045C306.486 343.297 303.727 340.542 300.971 337.786C298.855 335.67 296.737 333.557 294.617 331.445C293.599 330.429 292.581 329.413 291.564 328.397C290.146 326.982 288.725 325.57 287.304 324.159C286.495 323.354 285.687 322.549 284.853 321.719C283.299 319.887 283.299 319.887 282 320ZM248 324C248 346.44 248 368.88 248 392C253.28 392 258.56 392 264 392C264 369.56 264 347.12 264 324C258.72 324 253.44 324 248 324Z" fill="black"/>
<path d="M270.879 3.45314C276.83 7.79316 280.105 12.846 282 20C282.389 23.9127 282.351 27.79 282.293 31.7188C282.289 32.8172 282.285 33.9157 282.28 35.0475C282.263 38.5319 282.226 42.0158 282.188 45.5C282.173 47.8724 282.159 50.2448 282.147 52.6172C282.114 58.4117 282.063 64.2058 282 70C283.106 70.0912 283.106 70.0912 284.234 70.1843C285.211 70.2683 286.188 70.3522 287.195 70.4387C288.159 70.5202 289.123 70.6016 290.117 70.6855C294.408 71.1536 298.515 72.1063 302.688 73.1875C303.55 73.4089 304.412 73.6303 305.301 73.8584C324.564 78.9584 342.999 87.1656 359.482 98.3699C360.135 98.8137 360.788 99.2576 361.461 99.7149C362.026 100.108 362.591 100.501 363.173 100.906C365.361 102.216 367.617 103.104 370 104C371.3 102.676 371.3 102.676 372.627 101.325C375.87 98.0283 379.122 94.7414 382.378 91.4573C383.781 90.0391 385.182 88.6183 386.579 87.1946C388.598 85.1394 390.626 83.0943 392.656 81.0508C393.271 80.4204 393.886 79.79 394.52 79.1405C401.588 72.0693 408.618 67.6382 418.75 66.625C425.783 66.8572 432.715 69.3847 437.938 74.125C443.295 80.1649 445.786 87.4565 445.371 95.5C443.147 110.481 429.658 120.486 419.438 130.625C418.322 131.735 417.207 132.846 416.092 133.957C413.397 136.641 410.7 139.321 408 142C409.575 146.121 411.527 149.46 414 153.125C428.253 174.917 442.499 203.338 442 230C442.609 229.993 443.217 229.987 443.844 229.98C450.204 229.913 456.563 229.868 462.923 229.835C465.293 229.82 467.664 229.8 470.034 229.774C473.45 229.737 476.865 229.72 480.281 229.707C481.334 229.692 482.386 229.676 483.47 229.66C492.668 229.658 499.425 231.557 506.234 238.004C511.891 244.399 512.716 251.19 512.445 259.559C511.456 267.204 507.974 272.821 502.137 277.746C494.874 282.008 488.526 282.414 480.281 282.293C479.183 282.289 478.084 282.284 476.953 282.28C473.468 282.263 469.984 282.226 466.5 282.188C464.128 282.172 461.755 282.159 459.383 282.146C453.588 282.114 447.794 282.063 442 282C441.909 283.106 441.909 283.106 441.816 284.234C441.732 285.211 441.648 286.188 441.561 287.195C441.48 288.159 441.398 289.123 441.315 290.117C440.846 294.408 439.894 298.514 438.813 302.688C438.591 303.55 438.37 304.412 438.142 305.301C433.042 324.564 424.834 342.999 413.63 359.482C413.186 360.135 412.743 360.788 412.285 361.461C411.696 362.309 411.696 362.309 411.094 363.173C409.784 365.361 408.897 367.617 408 370C408.913 370.892 409.826 371.784 410.766 372.703C414.178 376.042 417.576 379.394 420.97 382.75C422.436 384.196 423.905 385.638 425.378 387.076C427.505 389.155 429.619 391.246 431.731 393.34C432.383 393.971 433.035 394.603 433.707 395.254C440.124 401.668 445.047 408.88 445.25 418.188C445.103 426.327 442.542 432.346 436.969 438.273C431.097 443.423 424.189 445.417 416.488 445.266C401.633 443.68 391.29 429.432 381.375 419.438C380.265 418.322 379.154 417.207 378.043 416.092C375.359 413.397 372.679 410.7 370 408C365.84 409.589 362.455 411.574 358.75 414.062C337.135 428.189 308.377 442.637 282 442C282.007 442.609 282.013 443.217 282.02 443.844C282.087 450.204 282.132 456.563 282.165 462.923C282.18 465.293 282.2 467.664 282.226 470.034C282.263 473.45 282.28 476.865 282.293 480.281C282.309 481.334 282.324 482.386 282.34 483.47C282.342 492.668 280.444 499.425 273.996 506.234C267.602 511.891 260.81 512.716 252.441 512.445C244.796 511.456 239.179 507.974 234.254 502.137C229.992 494.874 229.586 488.526 229.707 480.281C229.711 479.183 229.716 478.084 229.72 476.953C229.737 473.468 229.774 469.984 229.813 466.5C229.828 464.128 229.841 461.755 229.854 459.383C229.887 453.588 229.937 447.794 230 442C228.894 441.909 228.894 441.909 227.766 441.816C226.789 441.732 225.812 441.648 224.805 441.561C223.359 441.439 223.359 441.439 221.884 441.314C217.592 440.846 213.486 439.894 209.313 438.812C208.45 438.591 207.588 438.37 206.7 438.142C187.436 433.042 169.001 424.834 152.518 413.63C151.865 413.186 151.212 412.742 150.539 412.285C149.974 411.892 149.409 411.499 148.827 411.094C146.639 409.784 144.383 408.897 142 408C141.108 408.913 140.216 409.826 139.297 410.766C135.958 414.178 132.606 417.576 129.25 420.97C127.804 422.436 126.362 423.905 124.924 425.378C122.845 427.505 120.754 429.619 118.66 431.73C118.029 432.383 117.397 433.035 116.746 433.707C110.332 440.124 103.12 445.047 93.8126 445.25C85.6735 445.103 79.6539 442.542 73.7266 436.969C68.5771 431.097 66.5832 424.189 66.7344 416.488C68.3202 401.633 82.568 391.29 92.5626 381.375C93.678 380.265 94.7933 379.154 95.9083 378.043C98.6028 375.359 101.301 372.679 104 370C102.411 365.84 100.426 362.455 97.9376 358.75C83.8115 337.135 69.3628 308.377 70.0001 282C69.3914 282.007 68.7828 282.013 68.1557 282.02C61.7962 282.087 55.4369 282.132 49.0772 282.165C46.7067 282.18 44.3363 282.2 41.9659 282.226C38.5501 282.263 35.1347 282.28 31.7188 282.293C30.6664 282.308 29.614 282.324 28.5297 282.34C19.3324 282.342 12.575 280.443 5.76568 273.996C0.109378 267.601 -0.716091 260.81 -0.445262 252.441C0.54402 244.796 4.02625 239.179 9.86333 234.254C17.1264 229.992 23.4738 229.586 31.7188 229.707C32.8173 229.711 33.9158 229.716 35.0475 229.72C38.532 229.737 42.0158 229.774 45.5 229.813C47.8724 229.828 50.2448 229.841 52.6172 229.854C58.4117 229.886 64.2058 229.937 70.0001 230C70.0913 228.894 70.0913 228.894 70.1843 227.766C70.2683 226.789 70.3523 225.812 70.4388 224.805C70.5609 223.359 70.5609 223.359 70.6856 221.883C71.1536 217.592 72.1064 213.486 73.1876 209.313C73.4089 208.45 73.6303 207.588 73.8585 206.699C78.9584 187.436 87.1656 169.001 98.3699 152.518C98.8138 151.865 99.2576 151.212 99.7149 150.539C100.305 149.691 100.305 149.691 100.906 148.827C102.216 146.639 103.104 144.383 104 142C103.092 141.124 102.185 140.248 101.25 139.345C97.8457 136.051 94.4626 132.736 91.085 129.415C89.6279 127.987 88.1655 126.566 86.6973 125.15C67.2258 106.355 67.2258 106.355 66.3751 93.375C66.9059 85.1882 69.7533 78.0367 75.8829 72.4727C81.9558 68.2485 89.6182 65.7096 97.0001 67C106.989 69.063 113.066 75.0162 120 82C121.381 83.3723 122.762 84.7444 124.144 86.1156C130.123 92.0504 136.069 98.0174 142 104C146.16 102.411 149.545 100.426 153.25 97.9375C174.866 83.8115 203.624 69.3627 230 70C229.99 69.0871 229.99 69.0871 229.98 68.1557C229.913 61.7962 229.868 55.4369 229.835 49.0772C229.82 46.7067 229.8 44.3362 229.774 41.9658C229.737 38.5501 229.72 35.1347 229.707 31.7188C229.692 30.6664 229.676 29.614 229.66 28.5297C229.658 19.3323 231.557 12.5749 238.004 5.76564C247.064 -2.24832 260.612 -2.54879 270.879 3.45314ZM248 23C247.315 26.4518 247.417 29.8247 247.512 33.332C247.519 34.3238 247.526 35.3155 247.533 36.3373C247.561 39.4965 247.624 42.6539 247.688 45.8125C247.713 47.9577 247.735 50.1029 247.756 52.2481C247.811 57.4994 247.897 62.7494 248 68C253.28 68 258.56 68 264 68C264.124 61.6829 264.214 55.3666 264.275 49.0486C264.3 46.9 264.334 44.7516 264.377 42.6033C264.438 39.5127 264.466 36.4232 264.488 33.332C264.514 32.3735 264.54 31.415 264.567 30.4275C264.568 25.7921 264.522 23.6918 261.657 19.8933C259.116 17.8145 259.116 17.8145 256 17.375C251.822 18.2454 250.571 19.5917 248 23ZM88.3126 86.625C85.8352 88.8478 85.8352 88.8478 84.9376 91.875C85.0691 98.4518 90.8558 103.131 95.2969 107.492C95.8906 108.083 96.4842 108.674 97.0958 109.283C98.9759 111.151 100.863 113.013 102.75 114.875C104.033 116.148 105.316 117.421 106.598 118.695C109.727 121.802 112.862 124.903 116 128C119.411 126.395 121.618 124.595 124.25 121.875C124.956 121.151 125.663 120.426 126.391 119.68C126.922 119.125 127.453 118.571 128 118C126.35 113.763 123.201 110.913 120.039 107.773C119.452 107.185 118.865 106.596 118.26 105.989C117.02 104.748 115.778 103.509 114.533 102.272C112.632 100.382 110.741 98.4806 108.852 96.5781C107.644 95.3718 106.436 94.166 105.227 92.961C104.663 92.3932 104.099 91.8255 103.519 91.2406C98.8622 86.6393 94.81 82.6963 88.3126 86.625ZM407.84 91.9326C406.724 93.0489 405.614 94.1706 404.508 95.2969C403.917 95.8905 403.326 96.4842 402.718 97.0958C400.849 98.9758 398.987 100.863 397.125 102.75C395.852 104.033 394.579 105.316 393.305 106.598C390.198 109.727 387.097 112.862 384 116C385.605 119.411 387.405 121.618 390.125 124.25C391.212 125.31 391.212 125.31 392.32 126.391C392.875 126.922 393.429 127.453 394 128C398.237 126.35 401.087 123.201 404.227 120.039C404.816 119.452 405.404 118.865 406.011 118.26C407.252 117.02 408.491 115.778 409.728 114.533C411.618 112.632 413.519 110.741 415.422 108.852C416.628 107.644 417.834 106.436 419.039 105.227C419.607 104.663 420.175 104.099 420.759 103.518C424.566 99.7146 424.566 99.7146 427 95C426.917 91.0301 426.483 89.4958 423.688 86.625C417.145 82.6693 412.563 87.4002 407.84 91.9326ZM131.203 139.547C126.491 144.793 122.192 150.333 118 156C117.576 156.569 117.152 157.139 116.714 157.725C91.1463 192.525 80.7744 238.988 87.1251 281.562C94.6758 326.835 119.181 366.765 156 394C156.854 394.636 156.854 394.636 157.725 395.286C192.591 420.902 238.401 430.856 281 424.875C325.732 417.843 366.275 393.238 393.258 356.965C419.906 319.5 431.588 274.235 424.481 228.528C416.633 183.972 392.296 144.848 356 118C355.431 117.576 354.861 117.151 354.275 116.714C285.678 66.3157 189.126 79.9083 131.203 139.547ZM18 253C17.1667 256 17.1667 256 18 259C20.0408 261.864 21.6431 263.731 25.1914 264.435C27.9184 264.579 30.6022 264.562 33.3321 264.488C34.8197 264.478 34.8197 264.478 36.3374 264.467C39.4965 264.439 42.6539 264.376 45.8125 264.312C47.9577 264.287 50.1029 264.265 52.2481 264.244C57.4994 264.189 62.7494 264.103 68.0001 264C68.0001 258.72 68.0001 253.44 68.0001 248C61.683 247.876 55.3666 247.786 49.0486 247.725C46.9001 247.7 44.7516 247.666 42.6033 247.623C39.5127 247.562 36.4232 247.534 33.3321 247.512C32.3736 247.486 31.4151 247.46 30.4275 247.434C24.5743 247.431 21.6132 247.93 18 253ZM444 248C444 253.28 444 258.56 444 264C450.317 264.124 456.633 264.214 462.951 264.275C465.1 264.3 467.249 264.334 469.397 264.377C472.487 264.438 475.577 264.466 478.668 264.488C479.627 264.514 480.585 264.54 481.573 264.566C486.208 264.568 488.308 264.522 492.107 261.657C494.186 259.116 494.186 259.116 494.625 256C493.755 251.822 492.408 250.57 489 248C485.548 247.314 482.175 247.417 478.668 247.512C477.18 247.522 477.18 247.522 475.663 247.533C472.504 247.561 469.346 247.624 466.188 247.688C464.042 247.713 461.897 247.735 459.752 247.756C454.501 247.811 449.251 247.897 444 248ZM111.403 388.319C110.786 388.941 110.168 389.562 109.531 390.203C108.895 390.837 108.259 391.472 107.604 392.125C106.256 393.471 104.911 394.82 103.569 396.17C101.516 398.234 99.4518 400.288 97.3868 402.34C96.0801 403.648 94.7741 404.956 93.4688 406.266C92.8511 406.879 92.2333 407.493 91.5969 408.125C91.0229 408.706 90.4489 409.286 89.8575 409.884C89.3528 410.39 88.8481 410.896 88.3281 411.418C85.9355 414.268 84.9845 416.254 85.0626 420C86.2613 423.836 87.5022 425.057 91.0001 427C94.1925 427.213 96.0645 426.701 98.6395 424.772C105.019 419.13 111.006 413.106 117 407.062C118.071 405.986 119.143 404.91 120.215 403.834C122.813 401.225 125.407 398.614 128 396C126.411 392.641 124.649 390.379 122 387.75C121.299 387.044 120.598 386.337 119.875 385.609C116.022 382.303 114.478 385.278 111.403 388.319ZM391.617 386.188C390.26 387.58 390.26 387.58 388.875 389C387.965 389.928 387.055 390.856 386.117 391.812C385.419 392.534 384.72 393.256 384 394C385.65 398.237 388.799 401.087 391.961 404.227C392.841 405.11 392.841 405.11 393.74 406.011C394.98 407.252 396.222 408.491 397.467 409.728C399.368 411.618 401.259 413.519 403.148 415.422C404.356 416.628 405.565 417.834 406.773 419.039C407.337 419.607 407.901 420.175 408.482 420.759C412.285 424.566 412.285 424.566 417 427C420.901 426.919 422.513 426.437 425.438 423.812C427.193 421.124 427.193 421.124 427.188 418.188C423.998 409.627 415.144 402.958 408.755 396.57C407.168 394.98 405.589 393.383 404.01 391.785C403.001 390.773 401.991 389.761 400.981 388.75C400.072 387.837 399.163 386.925 398.227 385.984C395.092 383.191 394.717 383.342 391.617 386.188ZM248 444C247.876 450.317 247.786 456.633 247.725 462.951C247.7 465.1 247.666 467.248 247.623 469.397C247.562 472.487 247.534 475.577 247.512 478.668C247.486 479.626 247.46 480.585 247.434 481.573C247.432 486.208 247.478 488.308 250.343 492.107C252.884 494.185 252.884 494.185 256 494.625C260.178 493.755 261.43 492.408 264 489C264.686 485.548 264.583 482.175 264.488 478.668C264.481 477.676 264.474 476.684 264.467 475.663C264.439 472.503 264.376 469.346 264.313 466.188C264.287 464.042 264.265 461.897 264.244 459.752C264.189 454.501 264.103 449.251 264 444C258.72 444 253.44 444 248 444Z" fill="black"/>
<path d="M278.188 228.688C286.052 234.97 289.713 243.127 291 253C291.334 264.12 287.911 272.487 280.902 280.992C274.296 287.965 265.371 290.801 255.879 291.098C245.809 290.572 237.353 286.934 230 280C223.208 272.27 220.543 263.02 221.063 252.813C222.24 243.204 226.663 234.69 233.965 228.274C247.857 218.074 264.403 219.307 278.188 228.688ZM243 245C240.083 248.855 239.164 252.174 239 257C240.183 262.547 242.475 266.481 247 270C251.279 272.491 254.785 273.351 259.688 272.438C264.892 270.96 267.91 268.792 270.75 264.125C273.063 258.343 273.436 254.606 271.004 248.891C267.786 242.831 263.217 240.937 257 239C251.395 239 246.946 241.164 243 245Z" fill="black"/>
</g>
<defs>
<clipPath id="clip0_583_3">
<rect width="512" height="512" fill="white"/>
</clipPath>
</defs>
</svg>
